<svg width="177" height="40" viewBox="0 0 177 40" fill="none" xmlns="http://www.w3.org/2000/svg">
<g id="575k+">
<path d="M22.4563 13.9966C26.1672 13.9966 29.2759 14.5174 31.7824 15.5591C34.3214 16.5682 36.2094 17.9516 37.4463 19.7094C38.7158 21.4347 39.3506 23.3715 39.3506 25.5199C39.3506 30.4026 37.6416 33.9507 34.2237 36.1642C30.8384 38.3452 26.2974 39.4357 20.6009 39.4357C15.8158 39.4357 11.6004 38.6382 7.95461 37.0431C4.34138 35.4156 1.72098 32.6975 0.093399 28.889C1.88374 28.6286 3.83683 28.2054 5.95268 27.6195C8.10109 27.0335 10.0379 26.4313 11.7631 25.8128C12.4467 27.2126 13.407 28.2379 14.644 28.889C15.8809 29.5075 17.541 29.8167 19.6243 29.8167C21.8379 29.8167 23.6607 29.4586 25.093 28.7425C26.5578 28.0264 27.2902 27.0335 27.2902 25.764C27.2902 24.462 26.6555 23.3715 25.386 22.4926C24.1165 21.6137 22.1796 21.1742 19.5755 21.1742C17.8828 21.1742 16.3366 21.4835 14.9369 22.102C13.5372 22.6879 12.5281 23.5342 11.9096 24.641H0.6305C1.41174 21.2882 2.09532 17.675 2.68125 13.8013C3.29973 9.92768 3.67407 6.49349 3.80428 3.49874H38.0811V12.9713C34.4679 12.7434 31.0499 12.6132 27.8273 12.5806C24.6373 12.5155 20.1614 12.483 14.3998 12.483L13.9115 15.2173C16.3855 14.4035 19.2337 13.9966 22.4563 13.9966Z" fill="black"/>
<path d="M41.2934 3.44991H76.6444V9.74864C70.2643 19.4165 65.3327 29.1494 61.8497 38.9474H48.6663C52.2144 30.1259 56.8856 21.3533 62.6798 12.6295C53.663 12.6295 46.5342 12.7922 41.2934 13.1177V3.44991Z" fill="black"/>
<path d="M98.1807 13.9966C101.892 13.9966 105 14.5174 107.507 15.5591C110.046 16.5682 111.934 17.9516 113.171 19.7094C114.44 21.4347 115.075 23.3715 115.075 25.5199C115.075 30.4026 113.366 33.9507 109.948 36.1642C106.563 38.3452 102.022 39.4357 96.3253 39.4357C91.5402 39.4357 87.3248 38.6382 83.679 37.0431C80.0658 35.4156 77.4454 32.6975 75.8178 28.889C77.6081 28.6286 79.5612 28.2054 81.6771 27.6195C83.8255 27.0335 85.7623 26.4313 87.4875 25.8128C88.1711 27.2126 89.1314 28.2379 90.3683 28.889C91.6053 29.5075 93.2654 29.8167 95.3487 29.8167C97.5622 29.8167 99.3851 29.4586 100.817 28.7425C102.282 28.0264 103.015 27.0335 103.015 25.764C103.015 24.462 102.38 23.3715 101.11 22.4926C99.8408 21.6137 97.904 21.1742 95.2999 21.1742C93.6072 21.1742 92.061 21.4835 90.6613 22.102C89.2616 22.6879 88.2525 23.5342 87.634 24.641H76.3549C77.1361 21.2882 77.8197 17.675 78.4056 13.8013C79.0241 9.92768 79.3984 6.49349 79.5286 3.49874H113.805V12.9713C110.192 12.7434 106.774 12.6132 103.552 12.5806C100.362 12.5155 95.8858 12.483 90.1242 12.483L89.6359 15.2173C92.1098 14.4035 94.9581 13.9966 98.1807 13.9966Z" fill="black"/>
<path d="M151.49 12.2388L139.381 23.2738C143.515 29.1331 147.372 34.3576 150.953 38.9474H138.014L135.523 34.9436C133.896 32.2418 132.822 30.484 132.301 29.6702L128.248 33.3811V38.9474H117.018C117.278 32.7626 117.408 26.4964 117.408 20.1489C117.408 13.7688 117.278 7.37238 117.018 0.959717H128.248V21.6625C131.406 18.4399 134.384 15.2987 137.183 12.2388H151.49Z" fill="black"/>
<path d="M168.291 17.561H176.982V27.0824H168.291V35.8225H158.77V27.0824H150.03V17.561H158.77V8.82092H168.291V17.561Z" fill="black"/>
</g>
</svg>
